<!-- /public/icons/github.svg -->
<svg xmlns="http://www.w3.org/2000/svg" fill="currentColor" viewBox="0 0 24 24">
  <path d="M12 .297a12 12 0 0 0-3.79 23.4c.6.113.82-.26.82-.577v-2.256c-3.34.726-4.042-1.61-4.042-1.61-.546-1.387-1.332-1.756-1.332-1.756-1.09-.745.083-.729.083-.729 1.204.084 1.838 1.236 1.838 1.236 1.07 1.834 2.806 1.304 3.492.997.107-.775.42-1.305.762-1.605-2.665-.303-5.467-1.332-5.467-5.931 0-1.31.469-2.38 1.236-3.221-.124-.303-.536-1.524.117-3.176 0 0 1.008-.322 3.3 1.23A11.5 11.5 0 0 1 12 6.844a11.5 11.5 0 0 1 3.003.404c2.29-1.552 3.297-1.23 3.297-1.23.655 1.652.243 2.873.12 3.176.77.84 1.235 1.91 1.235 3.22 0 4.61-2.807 5.625-5.48 5.922.43.37.823 1.102.823 2.222v3.293c0 .319.218.694.825.576A12 12 0 0 0 12 .297z"></path>
</svg>
